<svg 
  xmlns="http://www.w3.org/2000/svg" 
  viewBox="0 0 48 48"
>
  <g>
    <polygon 
      fill="currentColor" 
      points="39.3,24.1 26.1,24.1 26.1,17.4 39.3,17.4 39.3,12.4 47,20.7 39.3,29.1"
    />
    <polygon 
      fill="currentColor" 
      points="19.2,47 2.5,39 2.5,2.5 19.2,10.4"
    />
    <g>
      <path 
        fill="currentColor" 
        d="M32.1,40.5H2.5C1.7,40.5,1,39.8,1,39V2.5C1,1.7,1.7,1,2.5,1h29.6c0.8,0,1.5,0.7,1.5,1.5v9.2c0,0.8-0.7,1.5-1.5,1.5c-0.8,0-1.5-0.7-1.5-1.5V3.9H4v33.7h26.6v-7.7c0-0.8,0.7-1.5,1.5-1.5c0.8,0,1.5,0.7,1.5,1.5V39C33.5,39.8,32.9,40.5,32.1,40.5z"
      />
    </g>
  </g>
</svg>